<svg xmlns="http://www.w3.org/2000/svg" viewBox="0 0 64 64">
  <defs>
    <linearGradient id="bg" x1="10" y1="6" x2="56" y2="58" gradientUnits="userSpaceOnUse">
      <stop stop-color="#5DE1D6" />
      <stop offset="0.48" stop-color="#2B8CFF" />
      <stop offset="1" stop-color="#1F3A8A" />
    </linearGradient>
    <linearGradient id="mark" x1="18" y1="18" x2="46" y2="46" gradientUnits="userSpaceOnUse">
      <stop stop-color="#FFFFFF" />
      <stop offset="1" stop-color="#D9F7FF" />
    </linearGradient>
  </defs>
  <rect width="64" height="64" rx="16" fill="url(#bg)" />
  <path
    fill="url(#mark)"
    d="M18 19.5c0-1.4 1.1-2.5 2.5-2.5h5.8v12.5h11.4V17h5.8c1.4 0 2.5 1.1 2.5 2.5v25c0 1.4-1.1 2.5-2.5 2.5h-5.8V34.2H26.3V47h-5.8a2.5 2.5 0 0 1-2.5-2.5v-25Z"
  />
  <circle cx="32" cy="32" r="3.4" fill="#0EA5E9" opacity="0.95" />
  <path
    fill="none"
    stroke="#D9F7FF"
    stroke-linecap="round"
    stroke-width="3"
    d="M14 50c5.8 4.2 12 6.3 18.2 6.3S44.5 54.2 50 50"
    opacity="0.75"
  />
</svg>
